<?xml version="1.0" encoding="UTF-8"?>
<!DOCTYPE svg PUBLIC "-//W3C//DTD SVG 1.1//EN" "http://www.w3.org/Graphics/SVG/1.1/DTD/svg11.dtd">
<svg xmlns="http://www.w3.org/2000/svg" version="1.1" width="152px" height="169px" style="shape-rendering:geometricPrecision; text-rendering:geometricPrecision; image-rendering:optimizeQuality; fill-rule:evenodd; clip-rule:evenodd" xmlns:xlink="http://www.w3.org/1999/xlink">
<g><path style="opacity:1" fill="#f42917" d="M 136.5,48.5 C 137.49,73.7589 137.823,99.0922 137.5,124.5C 116.454,137.445 94.9543,149.779 73,161.5C 51.3434,149.183 29.6767,136.85 8,124.5C 7.33333,99.5 7.33333,74.5 8,49.5C 28.9219,36.9542 50.0886,24.7875 71.5,13C 72.8333,12.3333 74.1667,12.3333 75.5,13C 95.8963,24.86 116.23,36.6933 136.5,48.5 Z M 117.5,52.5 C 117.5,53.1667 117.5,53.8333 117.5,54.5C 113.809,55.7622 110.309,57.4288 107,59.5C 105.415,58.9561 103.915,58.2894 102.5,57.5C 101.71,56.5987 100.71,55.9321 99.5,55.5C 98.1667,54.8333 96.8333,54.1667 95.5,53.5C 94.7095,52.5987 93.7095,51.9321 92.5,51.5C 91.1667,50.8333 89.8333,50.1667 88.5,49.5C 87.7095,48.5987 86.7095,47.9321 85.5,47.5C 81.4414,45.052 77.2747,42.7187 73,40.5C 61.8122,47.0939 50.4789,53.4272 39,59.5C 35.265,57.7157 31.765,55.549 28.5,53C 43.5,44.5 58.5,36 73.5,27.5C 88.1838,35.8612 102.85,44.1945 117.5,52.5 Z M 99.5,70.5 C 100.633,78.4211 100.8,86.4211 100,94.5C 99.6174,93.944 99.1174,93.6107 98.5,93.5C 92.5272,90.1788 86.5272,86.8455 80.5,83.5C 79.3351,75.5208 79.1684,67.5208 80,59.5C 86.1495,63.8238 92.6495,67.4904 99.5,70.5 Z M 65.5,60.5 C 66.492,67.9818 66.8254,75.6484 66.5,83.5C 59.6495,86.5096 53.1495,90.1762 47,94.5C 46.1684,86.4792 46.3351,78.4792 47.5,70.5C 53.5272,67.1545 59.5272,63.8212 65.5,60.5 Z M 22.5,65.5 C 25.3388,67.4203 28.3388,69.0869 31.5,70.5C 32.1497,83.9316 32.8164,97.2649 33.5,110.5C 44.1667,116.5 54.8333,122.5 65.5,128.5C 66.7973,133.267 66.7973,137.934 65.5,142.5C 51.1662,133.664 36.4995,125.331 21.5,117.5C 21.17,99.992 21.5033,82.6586 22.5,65.5 Z M 123.5,65.5 C 124.831,73.6394 125.498,82.1394 125.5,91C 125.487,99.9084 125.153,108.742 124.5,117.5C 109.478,125.429 94.6451,133.763 80,142.5C 79.2009,137.913 79.3676,133.413 80.5,129C 91.4146,122.96 102.248,116.793 113,110.5C 113.333,97.5 113.667,84.5 114,71.5C 117.34,69.6369 120.507,67.6369 123.5,65.5 Z M 72.5,94.5 C 79.4729,98.321 86.4729,102.154 93.5,106C 87.6688,109.081 82.0021,112.415 76.5,116C 74.9556,117.187 73.2889,117.52 71.5,117C 65.5,113.333 59.5,109.667 53.5,106C 60.0044,102.303 66.3378,98.4701 72.5,94.5 Z"/></g>
<g><path style="opacity:0.961" fill="#ff907d" d="M 85.5,47.5 C 86.7095,47.9321 87.7095,48.5987 88.5,49.5C 86.8212,49.7148 85.8212,49.0481 85.5,47.5 Z"/></g>
<g><path style="opacity:0.828" fill="#f54f47" d="M 136.5,48.5 C 137.832,60.8153 138.499,73.4819 138.5,86.5C 138.5,99.3378 138.167,112.004 137.5,124.5C 137.823,99.0922 137.49,73.7589 136.5,48.5 Z"/></g>
<g><path style="opacity:0.949" fill="#ff907d" d="M 92.5,51.5 C 93.7095,51.9321 94.7095,52.5987 95.5,53.5C 93.8212,53.7148 92.8212,53.0481 92.5,51.5 Z"/></g>
<g><path style="opacity:0.357" fill="#fdada8" d="M 117.5,52.5 C 119.933,52.7856 119.933,53.4523 117.5,54.5C 117.5,53.8333 117.5,53.1667 117.5,52.5 Z"/></g>
<g><path style="opacity:0.953" fill="#ff907d" d="M 99.5,55.5 C 100.71,55.9321 101.71,56.5987 102.5,57.5C 100.821,57.7148 99.8212,57.0481 99.5,55.5 Z"/></g>
<g><path style="opacity:0.494" fill="#f88a85" d="M 65.5,60.5 C 65.56,59.9569 65.8933,59.6236 66.5,59.5C 67.8204,67.6572 67.8204,75.6572 66.5,83.5C 66.8254,75.6484 66.492,67.9818 65.5,60.5 Z"/></g>
<g><path style="opacity:0.237" fill="#fcc1be" d="M 22.5,65.5 C 21.5033,82.6586 21.17,99.992 21.5,117.5C 20.1727,99.9955 20.1727,82.3288 21.5,64.5C 22.1067,64.6236 22.44,64.9569 22.5,65.5 Z"/></g>
<g><path style="opacity:0.823" fill="#f65249" d="M 123.5,65.5 C 124.209,64.596 125.209,64.2627 126.5,64.5C 127.153,82.5316 126.486,100.198 124.5,117.5C 125.153,108.742 125.487,99.9084 125.5,91C 125.498,82.1394 124.831,73.6394 123.5,65.5 Z"/></g>
<g><path style="opacity:0.245" fill="#fcc2bf" d="M 31.5,70.5 C 33.4814,83.4581 34.1481,96.7914 33.5,110.5C 32.8164,97.2649 32.1497,83.9316 31.5,70.5 Z"/></g>
<g><path style="opacity:0.798" fill="#f65248" d="M 99.5,70.5 C 101.468,78.4329 102.135,86.7663 101.5,95.5C 99.8212,95.7148 98.8212,95.0481 98.5,93.5C 99.1174,93.6107 99.6174,93.944 100,94.5C 100.8,86.4211 100.633,78.4211 99.5,70.5 Z"/></g>
<g><path style="opacity:0.492" fill="#f8847e" d="M 65.5,128.5 C 66.8086,130.571 67.4752,133.071 67.5,136C 67.1667,138.5 66.8333,141 66.5,143.5C 65.8933,143.376 65.56,143.043 65.5,142.5C 66.7973,137.934 66.7973,133.267 65.5,128.5 Z"/></g>
</svg>
